<svg xmlns="http://www.w3.org/2000/svg" width="1200" height="630" viewBox="0 0 1200 630">
  <defs>
    <linearGradient id="bg" x1="0" y1="0" x2="1" y2="1"><stop offset="0%" stop-color="#0b1424"/><stop offset="100%" stop-color="#13243a"/></linearGradient>
    <marker id="a" markerWidth="10" markerHeight="10" refX="8" refY="3" orient="auto"><path d="M0,0 L0,6 L9,3 z" fill="#5fd0ff"/></marker>
    <marker id="b" markerWidth="10" markerHeight="10" refX="8" refY="3" orient="auto"><path d="M0,0 L0,6 L9,3 z" fill="#ffc15d"/></marker>
  </defs>
  <rect width="1200" height="630" fill="url(#bg)"/>
  <g fill="#152743" stroke="#3f5d84" stroke-width="2">
    <rect x="120" y="240" width="180" height="140" rx="16"/>
    <rect x="450" y="140" width="190" height="120" rx="16"/>
    <rect x="450" y="355" width="190" height="120" rx="16"/>
    <rect x="850" y="220" width="200" height="160" rx="20"/>
  </g>
  <g stroke-width="8" fill="none" stroke-linecap="round">
    <path d="M300 310H450" stroke="#5fd0ff" marker-end="url(#a)"/>
    <path d="M640 200C740 200 760 250 850 250" stroke="#ffc15d" marker-end="url(#b)"/>
    <path d="M640 415C740 415 760 350 850 350" stroke="#5fd0ff" marker-end="url(#a)"/>
  </g>
  <g>
    <rect x="500" y="185" width="90" height="16" rx="8" fill="#ffc15d" opacity="0.9"/>
    <rect x="495" y="222" width="100" height="16" rx="8" fill="#ffc15d" opacity="0.55"/>
    <rect x="500" y="400" width="90" height="16" rx="8" fill="#5fd0ff" opacity="0.9"/>
    <rect x="495" y="435" width="100" height="16" rx="8" fill="#5fd0ff" opacity="0.55"/>
    <circle cx="760" cy="300" r="28" fill="#ffb455" opacity="0.18"/>
    <circle cx="760" cy="300" r="9" fill="#ffb455" opacity="0.85"/>
  </g>
</svg>