<svg xmlns="http://www.w3.org/2000/svg" width="1200" height="630" viewBox="0 0 1200 630">
  <defs>
    <linearGradient id="bg" x1="0" y1="0" x2="1" y2="1"><stop offset="0%" stop-color="#090f1e"/><stop offset="100%" stop-color="#1a2036"/></linearGradient>
    <filter id="glow"><feGaussianBlur stdDeviation="10" result="b"/><feMerge><feMergeNode in="b"/><feMergeNode in="SourceGraphic"/></feMerge></filter>
  </defs>
  <rect width="1200" height="630" fill="url(#bg)"/>
  <g stroke="#232f4d" stroke-width="1" opacity="0.4"><path d="M0 90H1200M0 180H1200M0 270H1200M0 360H1200M0 450H1200M0 540H1200"/></g>
  <g fill="#12182b" stroke="#7a3340" stroke-width="2">
    <rect x="140" y="220" width="190" height="160" rx="18"/>
    <rect x="505" y="150" width="200" height="130" rx="18"/>
    <rect x="505" y="350" width="200" height="130" rx="18"/>
    <rect x="875" y="220" width="190" height="160" rx="18"/>
  </g>
  <g stroke-width="10" fill="none" stroke-linecap="round" opacity="0.95">
    <path d="M330 300C405 300 435 240 505 215" stroke="#ff6254"/>
    <path d="M330 300C410 300 435 390 505 415" stroke="#ff9d54"/>
    <path d="M705 215C780 215 810 300 875 300" stroke="#ff6254"/>
    <path d="M705 415C780 415 815 300 875 300" stroke="#56d3ff"/>
  </g>
  <g filter="url(#glow)">
    <circle cx="790" cy="300" r="55" fill="#ffcf5a" opacity="0.2"/>
    <circle cx="790" cy="300" r="16" fill="#ffcf5a" opacity="0.95"/>
    <circle cx="430" cy="300" r="12" fill="#ff6254" opacity="0.85"/>
    <circle cx="450" cy="355" r="12" fill="#ff9d54" opacity="0.7"/>
  </g>
</svg>